<?xml version="1.0" encoding="UTF-8"?>
<svg width="50px" height="50px" viewBox="0 0 50 50" version="1.1" xmlns="http://www.w3.org/2000/svg" xmlns:xlink="http://www.w3.org/1999/xlink">
    <!-- Generator: Sketch 47.1 (45422) - http://www.bohemiancoding.com/sketch -->
    <title>quizzo_logo</title>
    <desc>Created with Sketch.</desc>
    <defs>
        <linearGradient x1="0%" y1="50%" x2="98.9851564%" y2="50%" id="linearGradient-1">
            <stop stop-color="#50E3C2" offset="0%"></stop>
            <stop stop-color="#00BFA5" offset="100%"></stop>
        </linearGradient>
    </defs>
    <g id="Page-1" stroke="none" stroke-width="1" fill="none" fill-rule="evenodd">
        <g id="quizzo_logo">
            <rect id="Rectangle" fill="url(#linearGradient-1)" x="0" y="0" width="50" height="50" rx="8"></rect>
            <path d="M22.5,0 L42,0 C46.418278,-8.11624501e-16 50,3.581722 50,8 L50,42 C50,46.418278 46.418278,50 42,50 L22.5,50 L37,50 C41.418278,50 45,46.418278 45,42 L45,8 C45,3.581722 41.418278,-8.11624501e-16 37,0 L22.5,0 Z" id="Combined-Shape" fill-opacity="0.449247056" fill="#00BFA5"></path>
            <path d="M24.4845488,38.8578492 C22.338679,38.8578492 20.3716612,38.551301 18.5834363,37.9381953 C16.7952115,37.3250896 15.2688568,36.4246042 14.0043263,35.236712 C12.7397959,34.0488198 11.756287,32.5927157 11.0537701,30.868356 C10.3512532,29.1439963 10,27.1705921 10,24.9480841 C10,22.8788524 10.3704124,20.9884717 11.1112485,19.276885 C11.8520845,17.5652984 12.8802983,16.0964215 14.1959209,14.8702101 C15.5115435,13.6439988 17.0698303,12.692422 18.8708282,12.0154512 C20.6718261,11.3384803 22.6196846,11 24.7144623,11 C26.80924,11 28.7507121,11.3384803 30.538937,12.0154512 C32.3271618,12.692422 33.8726758,13.6376124 35.1755253,14.8510507 C36.4783749,16.064489 37.4938159,17.5205931 38.2218789,19.2194067 C38.9499418,20.9182203 39.3139679,22.7894418 39.3139679,24.8331273 C39.3139679,25.8805162 39.1990123,26.8576386 38.9690977,27.7645241 C38.739183,28.6714096 38.4326348,29.4952579 38.0494438,30.2360939 C37.6662527,30.97693 37.2319761,31.6347314 36.7466007,32.2095179 C36.2612254,32.7843045 35.7758574,33.2632861 35.2904821,33.6464771 L35.2904821,33.7614339 L41,33.6464771 L41,38.8578492 L24.4845488,38.8578492 Z M32.3782447,25.0247219 C32.3782447,23.8496027 32.1930385,22.763911 31.8226205,21.7676143 C31.4522025,20.7713176 30.928516,19.9155372 30.2515451,19.2002472 C29.5745743,18.4849573 28.7634988,17.9293386 27.8182942,17.5333745 C26.8730896,17.1374105 25.8384893,16.9394314 24.7144623,16.9394314 C23.6159813,16.9394314 22.6005403,17.1374105 21.6681088,17.5333745 C20.7356772,17.9293386 19.9246017,18.4849573 19.2348578,19.2002472 C18.545114,19.9155372 18.0086546,20.7713176 17.6254635,21.7676143 C17.2422725,22.763911 17.0506799,23.8496027 17.0506799,25.0247219 C17.0506799,26.2509332 17.2358861,27.368557 17.6063041,28.3776267 C17.9767221,29.3866964 18.5004086,30.2552498 19.1773795,30.9833127 C19.8543503,31.7113757 20.6590394,32.2733808 21.591471,32.6693449 C22.5239025,33.0653089 23.5521163,33.263288 24.6761434,33.263288 C25.7746244,33.263288 26.7964518,33.0653089 27.7416564,32.6693449 C28.6868609,32.2733808 29.5043229,31.7113757 30.1940667,30.9833127 C30.8838106,30.2552498 31.42027,29.3866964 31.8034611,28.3776267 C32.1866521,27.368557 32.3782447,26.2509332 32.3782447,25.0247219 Z" id="Q" fill="#FFFFFF"></path>
        </g>
    </g>
</svg>