<?xml version="1.0" encoding="UTF-8"?>
<svg width="50px" height="50px" viewBox="0 0 50 50" version="1.1" xmlns="http://www.w3.org/2000/svg" xmlns:xlink="http://www.w3.org/1999/xlink">
    <!-- Generator: Sketch 47.1 (45422) - http://www.bohemiancoding.com/sketch -->
    <title>SB_logo</title>
    <desc>Created with Sketch.</desc>
    <defs>
        <linearGradient x1="0%" y1="50%" x2="98.9851564%" y2="50%" id="linearGradient-1">
            <stop stop-color="#50E3C2" offset="0%"></stop>
            <stop stop-color="#00BFA5" offset="100%"></stop>
        </linearGradient>
    </defs>
    <g id="Page-1" stroke="none" stroke-width="1" fill="none" fill-rule="evenodd">
        <g id="SB_logo">
            <rect id="Rectangle" fill="url(#linearGradient-1)" x="0" y="0" width="50" height="50" rx="8"></rect>
            <path d="M19.96,20.06 C19.5199978,19.4999972 18.9450035,19.0550017 18.235,18.725 C17.5249965,18.3949984 16.8400033,18.23 16.18,18.23 C15.8399983,18.23 15.4950018,18.2599997 15.145,18.32 C14.7949983,18.3800003 14.4800014,18.4949992 14.2,18.665 C13.9199986,18.8350009 13.685001,19.0549987 13.495,19.325 C13.3049991,19.5950014 13.21,19.9399979 13.21,20.36 C13.21,20.7200018 13.2849992,21.0199988 13.435,21.26 C13.5850008,21.5000012 13.8049986,21.7099991 14.095,21.89 C14.3850015,22.0700009 14.729998,22.2349993 15.13,22.385 C15.530002,22.5350007 15.9799975,22.6899992 16.48,22.85 C17.2000036,23.0900012 17.9499961,23.3549986 18.73,23.645 C19.5100039,23.9350015 20.2199968,24.3199976 20.86,24.8 C21.5000032,25.2800024 22.0299979,25.8749964 22.45,26.585 C22.8700021,27.2950036 23.08,28.1799947 23.08,29.24 C23.08,30.4600061 22.8550022,31.5149956 22.405,32.405 C21.9549978,33.2950044 21.3500038,34.0299971 20.59,34.61 C19.8299962,35.1900029 18.9600049,35.6199986 17.98,35.9 C16.9999951,36.1800014 15.9900052,36.32 14.95,36.32 C13.4299924,36.32 11.9600071,36.0550027 10.54,35.525 C9.1199929,34.9949974 7.9400047,34.2400049 7,33.26 L10.36,29.84 C10.8800026,30.4800032 11.5649957,31.0149979 12.415,31.445 C13.2650043,31.8750022 14.1099958,32.09 14.95,32.09 C15.3300019,32.09 15.6999982,32.0500004 16.06,31.97 C16.4200018,31.8899996 16.7349986,31.7600009 17.005,31.58 C17.2750013,31.3999991 17.4899992,31.1600015 17.65,30.86 C17.8100008,30.5599985 17.89,30.2000021 17.89,29.78 C17.89,29.379998 17.790001,29.0400014 17.59,28.76 C17.389999,28.4799986 17.1050018,28.2250011 16.735,27.995 C16.3649982,27.7649988 15.9050027,27.5550009 15.355,27.365 C14.8049972,27.174999 14.1800035,26.9700011 13.48,26.75 C12.7999966,26.5299989 12.1350032,26.2700015 11.485,25.97 C10.8349968,25.6699985 10.2550026,25.2850023 9.745,24.815 C9.23499745,24.3449976 8.82500155,23.7750033 8.515,23.105 C8.20499845,22.4349967 8.05,21.6200048 8.05,20.66 C8.05,19.4799941 8.2899976,18.4700042 8.77,17.63 C9.2500024,16.7899958 9.8799961,16.1000027 10.66,15.56 C11.4400039,15.0199973 12.3199951,14.6250012 13.3,14.375 C14.2800049,14.1249988 15.269995,14 16.27,14 C17.470006,14 18.6949937,14.2199978 19.945,14.66 C21.1950062,15.1000022 22.2899953,15.7499957 23.23,16.61 L19.96,20.06 Z M43.03,29.6 C43.03,30.7600058 42.8000023,31.7349961 42.34,32.525 C41.8799977,33.315004 41.2700038,33.9499976 40.51,34.43 C39.7499962,34.9100024 38.8850048,35.254999 37.915,35.465 C36.9449951,35.6750011 35.9500051,35.78 34.93,35.78 L26.47,35.78 L26.47,14.54 L34.93,14.54 C35.7500041,14.54 36.5899957,14.6249992 37.45,14.795 C38.3100043,14.9650008 39.0899965,15.254998 39.79,15.665 C40.4900035,16.075002 41.0599978,16.6299965 41.5,17.33 C41.9400022,18.0300035 42.16,18.9199946 42.16,20 C42.16,21.1800059 41.8400032,22.1549962 41.2,22.925 C40.5599968,23.6950039 39.7200052,24.2499983 38.68,24.59 L38.68,24.65 C39.280003,24.7500005 39.8449973,24.9349986 40.375,25.205 C40.9050026,25.4750013 41.3649981,25.8199979 41.755,26.24 C42.145002,26.6600021 42.4549988,27.1499972 42.685,27.71 C42.9150012,28.2700028 43.03,28.8999965 43.03,29.6 Z M37.21,20.69 C37.21,19.9699964 36.9350028,19.4450016 36.385,19.115 C35.8349973,18.7849983 35.0200054,18.62 33.94,18.62 L31.42,18.62 L31.42,23 L34.18,23 C35.1400048,23 35.8849974,22.8050019 36.415,22.415 C36.9450027,22.024998 37.21,21.4500038 37.21,20.69 Z M37.9,29.12 C37.9,28.2399956 37.5700033,27.6300017 36.91,27.29 C36.2499967,26.9499983 35.3700055,26.78 34.27,26.78 L31.42,26.78 L31.42,31.64 L34.3,31.64 C34.700002,31.64 35.1149978,31.6050003 35.545,31.535 C35.9750022,31.4649997 36.3649982,31.3400009 36.715,31.16 C37.0650018,30.9799991 37.3499989,30.7250016 37.57,30.395 C37.7900011,30.0649983 37.9,29.6400026 37.9,29.12 Z" id="SB" fill="#FFFFFF"></path>
            <path d="M22.5,0 L42,0 C46.418278,-8.11624501e-16 50,3.581722 50,8 L50,42 C50,46.418278 46.418278,50 42,50 L22.5,50 L37,50 C41.418278,50 45,46.418278 45,42 L45,8 C45,3.581722 41.418278,-8.11624501e-16 37,0 L22.5,0 Z" id="Combined-Shape" fill-opacity="0.449247056" fill="#00BFA5"></path>
        </g>
    </g>
</svg>